<svg width="59" height="60" viewBox="0 0 59 60" fill="none" xmlns="http://www.w3.org/2000/svg">
<path opacity="0.21" fill-rule="evenodd" clip-rule="evenodd" d="M0.0304871 30V37C0.0304871 49.7025 10.3279 60 23.0305 60H29.229H35.4274C48.13 60 58.4274 49.7025 58.4274 37V30V23C58.4274 10.2975 48.13 0 35.4274 0H29.229H23.0305C10.3279 0 0.0304871 10.2975 0.0304871 23V30Z" fill="#4AD991"/>
<path d="M18.631 40.8889H41.3409C42.1771 40.8889 42.8549 41.5853 42.8549 42.4444C42.8549 43.3036 42.1771 44 41.3409 44H17.117C16.2808 44 15.603 43.3036 15.603 42.4444V17.5556C15.603 16.6964 16.2808 16 17.117 16C17.9531 16 18.631 16.6964 18.631 17.5556V40.8889Z" fill="#4AD991"/>
<path opacity="0.5" d="M24.2774 34.175C23.7055 34.8017 22.7474 34.8335 22.1374 34.2459C21.5274 33.6583 21.4965 32.6739 22.0684 32.0472L27.7459 25.8249C28.2989 25.2188 29.218 25.1662 29.8331 25.7056L34.3142 29.6343L40.1525 22.0361C40.6707 21.3618 41.6227 21.2467 42.279 21.779C42.9353 22.3114 43.0473 23.2895 42.5292 23.9638L35.7162 32.8305C35.184 33.5231 34.1984 33.6227 33.5451 33.0499L28.9667 29.0358L24.2774 34.175Z" fill="#4AD991"/>
</svg>
