<svg width="59" height="60" viewBox="0 0 59 60" fill="none" xmlns="http://www.w3.org/2000/svg">
<path opacity="0.3" fill-rule="evenodd" clip-rule="evenodd" d="M0.0306091 30V37C0.0306091 49.7025 10.3281 60 23.0306 60H29.2291H35.4276C48.1301 60 58.4276 49.7025 58.4276 37V30V23C58.4276 10.2975 48.1301 0 35.4276 0H29.2291H23.0306C10.3281 0 0.0306091 10.2975 0.0306091 23V30Z" fill="#FF9066"/>
<path opacity="0.78" fill-rule="evenodd" clip-rule="evenodd" d="M27.8969 23.8098C27.9164 23.5489 28.1338 23.3472 28.3955 23.3472H28.7755C29.0329 23.3472 29.2483 23.5426 29.2732 23.7987L29.8781 30.0138L34.1732 32.5356C34.3261 32.6254 34.4201 32.7894 34.4201 32.9668V33.3545C34.4201 33.6856 34.104 33.9253 33.7852 33.8359L27.6769 32.1243C27.4476 32.0601 27.2955 31.843 27.3132 31.6055L27.8969 23.8098Z" fill="#FF9066"/>
<path opacity="0.901274" fill-rule="evenodd" clip-rule="evenodd" d="M22.154 14.995C21.8938 14.6764 21.3896 14.8004 21.2954 15.2062L19.7108 22.0318C19.6344 22.3612 19.8874 22.672 20.2164 22.6528L27.0504 22.2549C27.4565 22.2313 27.6641 21.7419 27.4034 21.4227L25.6587 19.2864C26.7925 18.8884 27.9947 18.6805 29.2292 18.6805C35.3212 18.6805 40.2597 23.7546 40.2597 30.0138C40.2597 36.273 35.3212 41.3471 29.2292 41.3471C23.1372 41.3471 18.1987 36.273 18.1987 30.0138C18.1987 28.963 18.3372 27.9339 18.6072 26.9447L16.1082 26.2245C15.7792 27.4297 15.6032 28.7006 15.6032 30.0138C15.6032 37.7458 21.7038 44.0138 29.2292 44.0138C36.7546 44.0138 42.8551 37.7458 42.8551 30.0138C42.8551 22.2818 36.7546 16.0138 29.2292 16.0138C27.3363 16.0138 25.5335 16.4104 23.8952 17.1271L22.154 14.995Z" fill="#FF9066"/>
</svg>
