<svg width="29" height="31" viewBox="0 0 29 31" fill="none" xmlns="http://www.w3.org/2000/svg">
<path d="M27.1 5.7C27.1 8.0196 21.4588 9.9 14.5 9.9C7.54118 9.9 1.89996 8.0196 1.89996 5.7M27.1 5.7C27.1 3.3804 21.4588 1.5 14.5 1.5C7.54118 1.5 1.89996 3.3804 1.89996 5.7M27.1 5.7V25.3C27.1 27.624 21.5 29.5 14.5 29.5C7.49996 29.5 1.89996 27.624 1.89996 25.3V5.7M27.1 15.5C27.1 17.824 21.5 19.7 14.5 19.7C7.49996 19.7 1.89996 17.824 1.89996 15.5" stroke="#7242FF" stroke-width="2.91667" stroke-linecap="round" stroke-linejoin="round"/>
</svg>
