<svg width="59" height="60" viewBox="0 0 59 60" fill="none" xmlns="http://www.w3.org/2000/svg">
<path opacity="0.3" fill-rule="evenodd" clip-rule="evenodd" d="M0.0307617 30V37C0.0307617 49.7025 10.3282 60 23.0308 60H29.2292H35.4277C48.1303 60 58.4277 49.7025 58.4277 37V30V23C58.4277 10.2975 48.1303 0 35.4277 0H29.2292H23.0308C10.3282 0 0.0307617 10.2975 0.0307617 23V30Z" fill="#44C5E1"/>
<path opacity="0.78" fill-rule="evenodd" clip-rule="evenodd" d="M27.897 23.8098C27.9166 23.5489 28.134 23.3472 28.3956 23.3472H28.7757C29.0331 23.3472 29.2484 23.5426 29.2733 23.7987L29.8782 30.0138L34.1734 32.5356C34.3263 32.6254 34.4202 32.7894 34.4202 32.9668V33.3545C34.4202 33.6856 34.1042 33.9253 33.7853 33.8359L27.6771 32.1243C27.4478 32.0601 27.2956 31.843 27.3134 31.6055L27.897 23.8098Z" fill="#44C5E1"/>
<path opacity="0.901274" fill-rule="evenodd" clip-rule="evenodd" d="M22.1542 14.995C21.8939 14.6764 21.3898 14.8004 21.2956 15.2062L19.711 22.0318C19.6345 22.3612 19.8876 22.672 20.2165 22.6528L27.0505 22.2549C27.4566 22.2313 27.6642 21.7419 27.4035 21.4227L25.6589 19.2864C26.7926 18.8884 27.9949 18.6805 29.2293 18.6805C35.3213 18.6805 40.2599 23.7546 40.2599 30.0138C40.2599 36.273 35.3213 41.3471 29.2293 41.3471C23.1374 41.3471 18.1988 36.273 18.1988 30.0138C18.1988 28.963 18.3373 27.9339 18.6073 26.9447L16.1084 26.2245C15.7794 27.4297 15.6034 28.7006 15.6034 30.0138C15.6034 37.7458 21.7039 44.0138 29.2293 44.0138C36.7548 44.0138 42.8553 37.7458 42.8553 30.0138C42.8553 22.2818 36.7548 16.0138 29.2293 16.0138C27.3364 16.0138 25.5336 16.4104 23.8954 17.1271L22.1542 14.995Z" fill="#44C5E1"/>
</svg>
