<svg width="59" height="60" viewBox="0 0 59 60" fill="none" xmlns="http://www.w3.org/2000/svg">
<path opacity="0.21" fill-rule="evenodd" clip-rule="evenodd" d="M0.0304871 30V37C0.0304871 49.7025 10.3279 60 23.0305 60H29.229H35.4274C48.13 60 58.4274 49.7025 58.4274 37V30V23C58.4274 10.2975 48.13 0 35.4274 0H29.229H23.0305C10.3279 0 0.0304871 10.2975 0.0304871 23V30Z" fill="#FEC53D"/>
<path fill-rule="evenodd" clip-rule="evenodd" d="M14.6297 24.3165L27.1855 31.7646C27.3207 31.8448 27.4625 31.9027 27.6068 31.9395V46.3847L15.5252 39.0385C14.9701 38.701 14.6297 38.0876 14.6297 37.4249V24.3165ZM43.8281 24.1185V37.4249C43.8281 38.0876 43.4876 38.701 42.9326 39.0385L30.851 46.3847V31.8129C30.8804 31.7978 30.9096 31.7817 30.9384 31.7646L43.8281 24.1185Z" fill="#FEC53D"/>
<path opacity="0.499209" fill-rule="evenodd" clip-rule="evenodd" d="M15.0241 20.7014C15.1775 20.5024 15.3711 20.3343 15.5967 20.2108L28.3711 13.2201C28.9073 12.9266 29.5506 12.9266 30.0869 13.2201L42.8612 20.2108C43.0352 20.306 43.19 20.4277 43.3221 20.5697L29.3165 28.8778C29.2244 28.9325 29.1395 28.995 29.0621 29.064C28.9847 28.995 28.8998 28.9325 28.8077 28.8778L15.0241 20.7014Z" fill="#FEC53D"/>
</svg>
