<svg width="33" height="31" viewBox="0 0 33 31" fill="none" xmlns="http://www.w3.org/2000/svg">
<path d="M16.5 20.9688C13.4813 20.9688 11.0313 18.5188 11.0313 15.5C11.0313 12.4813 13.4813 10.0313 16.5 10.0313C19.5188 10.0313 21.9688 12.4813 21.9688 15.5C21.9688 18.5188 19.5188 20.9688 16.5 20.9688ZM16.5 12.2188C14.6917 12.2188 13.2188 13.6917 13.2188 15.5C13.2188 17.3083 14.6917 18.7813 16.5 18.7813C18.3084 18.7813 19.7813 17.3083 19.7813 15.5C19.7813 13.6917 18.3084 12.2188 16.5 12.2188Z" fill="#7242FF"/>
<path d="M21.1813 30.3604C20.875 30.3604 20.5688 30.3167 20.2625 30.2438C19.3584 29.9958 18.6 29.4271 18.1188 28.625L17.9438 28.3333C17.0834 26.8458 15.9021 26.8458 15.0417 28.3333L14.8813 28.6104C14.4 29.4271 13.6417 30.0104 12.7375 30.2438C11.8188 30.4917 10.8709 30.3604 10.0688 29.8792L7.56044 28.4354C6.67085 27.925 6.02919 27.0938 5.7521 26.0875C5.4896 25.0813 5.62085 24.0458 6.13127 23.1563C6.55419 22.4125 6.67085 21.7417 6.42294 21.3188C6.17502 20.8958 5.54794 20.6479 4.68752 20.6479C2.55835 20.6479 0.822937 18.9125 0.822937 16.7833V14.2167C0.822937 12.0875 2.55835 10.3521 4.68752 10.3521C5.54794 10.3521 6.17502 10.1042 6.42294 9.68126C6.67085 9.25834 6.56877 8.58751 6.13127 7.84376C5.62085 6.95418 5.4896 5.90418 5.7521 4.91251C6.0146 3.90626 6.65627 3.07501 7.56044 2.56459L10.0834 1.12084C11.7313 0.143761 13.9042 0.712511 14.8959 2.38959L15.0709 2.68126C15.9313 4.16876 17.1125 4.16876 17.9729 2.68126L18.1334 2.40418C19.125 0.712511 21.2979 0.143761 22.9604 1.13543L25.4688 2.57918C26.3584 3.08959 27 3.92084 27.2771 4.92709C27.5396 5.93334 27.4084 6.96876 26.8979 7.85835C26.475 8.60209 26.3584 9.27293 26.6063 9.69585C26.8542 10.1188 27.4813 10.3667 28.3417 10.3667C30.4709 10.3667 32.2063 12.1021 32.2063 14.2313V16.7979C32.2063 18.9271 30.4709 20.6625 28.3417 20.6625C27.4813 20.6625 26.8542 20.9104 26.6063 21.3333C26.3584 21.7563 26.4604 22.4271 26.8979 23.1708C27.4084 24.0604 27.5542 25.1104 27.2771 26.1021C27.0146 27.1083 26.3729 27.9396 25.4688 28.45L22.9459 29.8938C22.3917 30.2 21.7938 30.3604 21.1813 30.3604ZM16.5 24.9646C17.7979 24.9646 19.0084 25.7813 19.8396 27.225L20 27.5021C20.175 27.8083 20.4667 28.0271 20.8167 28.1146C21.1667 28.2021 21.5167 28.1583 21.8084 27.9833L24.3313 26.525C24.7104 26.3063 25.0021 25.9417 25.1188 25.5042C25.2354 25.0667 25.1771 24.6146 24.9584 24.2354C24.1271 22.8063 24.025 21.3333 24.6667 20.2104C25.3084 19.0875 26.6354 18.4458 28.2979 18.4458C29.2313 18.4458 29.975 17.7021 29.975 16.7688V14.2021C29.975 13.2833 29.2313 12.525 28.2979 12.525C26.6354 12.525 25.3084 11.8833 24.6667 10.7604C24.025 9.63751 24.1271 8.16459 24.9584 6.73543C25.1771 6.35626 25.2354 5.90418 25.1188 5.46668C25.0021 5.02918 24.725 4.67918 24.3459 4.44584L21.8229 3.00209C21.1959 2.62293 20.3646 2.84168 19.9854 3.48334L19.825 3.76043C18.9938 5.20418 17.7834 6.02084 16.4854 6.02084C15.1875 6.02084 13.9771 5.20418 13.1459 3.76043L12.9854 3.46876C12.6209 2.85626 11.8042 2.63751 11.1771 3.00209L8.65419 4.46043C8.27502 4.67918 7.98335 5.04376 7.86669 5.48126C7.75002 5.91876 7.80835 6.37084 8.0271 6.75001C8.85835 8.17918 8.96044 9.65209 8.31877 10.775C7.6771 11.8979 6.35002 12.5396 4.68752 12.5396C3.75419 12.5396 3.01044 13.2833 3.01044 14.2167V16.7833C3.01044 17.7021 3.75419 18.4604 4.68752 18.4604C6.35002 18.4604 7.6771 19.1021 8.31877 20.225C8.96044 21.3479 8.85835 22.8208 8.0271 24.25C7.80835 24.6292 7.75002 25.0813 7.86669 25.5188C7.98335 25.9563 8.26044 26.3063 8.6396 26.5396L11.1625 27.9833C11.4688 28.1729 11.8334 28.2167 12.1688 28.1292C12.5188 28.0417 12.8104 27.8083 13 27.5021L13.1604 27.225C13.9917 25.7958 15.2021 24.9646 16.5 24.9646Z" fill="#7242FF"/>
</svg>
