<svg width="59" height="60" viewBox="0 0 59 60" fill="none" xmlns="http://www.w3.org/2000/svg">
<path opacity="0.21" fill-rule="evenodd" clip-rule="evenodd" d="M0.0306091 30V37C0.0306091 49.7025 10.3281 60 23.0306 60H29.2291H35.4276C48.1301 60 58.4276 49.7025 58.4276 37V30V23C58.4276 10.2975 48.1301 0 35.4276 0H29.2291H23.0306C10.3281 0 0.0306091 10.2975 0.0306091 23V30Z" fill="#8280FF"/>
<path opacity="0.587821" fill-rule="evenodd" clip-rule="evenodd" d="M20.1448 23.3333C20.1448 26.2789 22.4689 28.6667 25.3357 28.6667C28.2025 28.6667 30.5265 26.2789 30.5265 23.3333C30.5265 20.3878 28.2025 18 25.3357 18C22.4689 18 20.1448 20.3878 20.1448 23.3333ZM33.1219 28.667C33.1219 30.8761 34.8649 32.667 37.015 32.667C39.1651 32.667 40.9081 30.8761 40.9081 28.667C40.9081 26.4579 39.1651 24.667 37.015 24.667C34.8649 24.667 33.1219 26.4579 33.1219 28.667Z" fill="#8280FF"/>
<path fill-rule="evenodd" clip-rule="evenodd" d="M25.3141 31.3333C19.1871 31.3333 14.1602 34.5687 13.6572 40.9323C13.6298 41.2789 14.275 42 14.6004 42H36.0376C37.0124 42 37.0276 41.194 37.0124 40.9333C36.6321 34.3909 31.5274 31.3333 25.3141 31.3333ZM36.4975 34.0007C38.1263 36.2289 39.0915 38.9986 39.0916 41.9998H44.0953C44.7993 41.9998 44.8103 41.3953 44.7993 41.1998C44.5277 36.3467 40.9181 34.0503 36.4975 34.0007Z" fill="#8280FF"/>
</svg>
